<svg width="14" height="14" viewBox="0 0 14 14" fill="none" xmlns="http://www.w3.org/2000/svg">
<path d="M6 4.6794H7.33334C7.51015 4.6794 7.67972 4.74965 7.80474 4.87471C7.92977 4.99976 8 5.16936 8 5.34621C8 5.52306 8.07024 5.69267 8.19527 5.81772C8.32029 5.94277 8.48986 6.01303 8.66667 6.01303C8.84348 6.01303 9.01305 5.94277 9.13807 5.81772C9.2631 5.69267 9.33334 5.52306 9.33334 5.34621C9.33334 4.81566 9.12262 4.30685 8.74755 3.93169C8.37248 3.55654 7.86377 3.34578 7.33334 3.34578H6C5.46957 3.34578 4.96086 3.55654 4.58579 3.93169C4.21072 4.30685 4 4.81566 4 5.34621V8.01346C4 8.54401 4.21072 9.05283 4.58579 9.42798C4.96086 9.80314 5.46957 10.0139 6 10.0139H7.33334C7.86377 10.0139 8.37248 9.80314 8.74755 9.42798C9.12262 9.05283 9.33334 8.54401 9.33334 8.01346C9.33334 7.83661 9.2631 7.66701 9.13807 7.54195C9.01305 7.4169 8.84348 7.34665 8.66667 7.34665C8.48986 7.34665 8.32029 7.4169 8.19527 7.54195C8.07024 7.66701 8 7.83661 8 8.01346C8 8.19031 7.92977 8.35992 7.80474 8.48497C7.67972 8.61002 7.51015 8.68027 7.33334 8.68027H6C5.82319 8.68027 5.65362 8.61002 5.5286 8.48497C5.40357 8.35992 5.33334 8.19031 5.33334 8.01346V5.34621C5.33334 5.16936 5.40357 4.99976 5.5286 4.87471C5.65362 4.74965 5.82319 4.6794 6 4.6794ZM6.66667 0.0117188C5.34813 0.0117187 4.0592 0.402797 2.96287 1.1355C1.86654 1.8682 1.01206 2.90962 0.507473 4.12806C0.00288856 5.3465 -0.129134 6.68723 0.128101 7.98072C0.385336 9.27421 1.02027 10.4624 1.95262 11.3949C2.88497 12.3275 4.07286 12.9625 5.36607 13.2198C6.65927 13.4771 7.99972 13.3451 9.21789 12.8404C10.4361 12.3357 11.4773 11.481 12.2098 10.3844C12.9423 9.28788 13.3333 7.99867 13.3333 6.67984C13.3333 5.80417 13.1609 4.93707 12.8259 4.12806C12.4908 3.31905 11.9998 2.58396 11.3807 1.96477C10.7617 1.34557 10.0267 0.854403 9.21789 0.519299C8.40906 0.184195 7.54215 0.0117188 6.66667 0.0117188ZM6.66667 12.0143C5.61184 12.0143 4.58069 11.7015 3.70363 11.1153C2.82657 10.5291 2.14298 9.69601 1.73931 8.72126C1.33564 7.74651 1.23003 6.67392 1.43582 5.63913C1.6416 4.60434 2.14955 3.65382 2.89543 2.90778C3.64131 2.16174 4.59162 1.65368 5.62619 1.44784C6.66075 1.24201 7.73311 1.34765 8.70765 1.75141C9.68219 2.15516 10.5151 2.8389 11.1012 3.71615C11.6872 4.5934 12 5.62477 12 6.67984C12 8.09463 11.4381 9.45148 10.4379 10.4519C9.43771 11.4523 8.08116 12.0143 6.66667 12.0143Z" fill="white" fill-opacity="0.8"/>
</svg>
