<svg width="140" height="26" viewBox="0 0 140 26" fill="none" xmlns="http://www.w3.org/2000/svg">
<rect width="140" height="25.7713" rx="12.8857" fill="white" fill-opacity="0.8"/>
<path d="M40.048 10.5351C40.56 10.5351 41.012 10.6351 41.404 10.8351C41.796 11.0351 42.1 11.3391 42.316 11.7471C42.54 12.1551 42.652 12.6711 42.652 13.2951V16.9551H41.5V13.4271C41.5 12.8111 41.356 12.3471 41.068 12.0351C40.78 11.7231 40.376 11.5671 39.856 11.5671C39.472 11.5671 39.136 11.6471 38.848 11.8071C38.56 11.9671 38.336 12.2031 38.176 12.5151C38.024 12.8271 37.948 13.2151 37.948 13.6791V16.9551H36.796V13.4271C36.796 12.8111 36.652 12.3471 36.364 12.0351C36.084 11.7231 35.68 11.5671 35.152 11.5671C34.776 11.5671 34.444 11.6471 34.156 11.8071C33.868 11.9671 33.644 12.2031 33.484 12.5151C33.324 12.8271 33.244 13.2151 33.244 13.6791V16.9551H32.092V10.5951H33.196V12.2871L33.016 11.8551C33.216 11.4391 33.524 11.1151 33.94 10.8831C34.356 10.6511 34.84 10.5351 35.392 10.5351C36 10.5351 36.524 10.6871 36.964 10.9911C37.404 11.2871 37.692 11.7391 37.828 12.3471L37.36 12.1551C37.552 11.6671 37.888 11.2751 38.368 10.9791C38.848 10.6831 39.408 10.5351 40.048 10.5351ZM48.7197 16.9551V15.6111L48.6597 15.3591V13.0671C48.6597 12.5791 48.5157 12.2031 48.2277 11.9391C47.9477 11.6671 47.5237 11.5311 46.9557 11.5311C46.5797 11.5311 46.2117 11.5951 45.8517 11.7231C45.4917 11.8431 45.1877 12.0071 44.9397 12.2151L44.4597 11.3511C44.7877 11.0871 45.1797 10.8871 45.6357 10.7511C46.0997 10.6071 46.5837 10.5351 47.0877 10.5351C47.9597 10.5351 48.6317 10.7471 49.1037 11.1711C49.5757 11.5951 49.8117 12.2431 49.8117 13.1151V16.9551H48.7197ZM46.6317 17.0271C46.1597 17.0271 45.7437 16.9471 45.3837 16.7871C45.0317 16.6271 44.7597 16.4071 44.5677 16.1271C44.3757 15.8391 44.2797 15.5151 44.2797 15.1551C44.2797 14.8111 44.3597 14.4991 44.5197 14.2191C44.6877 13.9391 44.9557 13.7151 45.3237 13.5471C45.6997 13.3791 46.2037 13.2951 46.8357 13.2951H48.8517V14.1231H46.8837C46.3077 14.1231 45.9197 14.2191 45.7197 14.4111C45.5197 14.6031 45.4197 14.8351 45.4197 15.1071C45.4197 15.4191 45.5437 15.6711 45.7917 15.8631C46.0397 16.0471 46.3837 16.1391 46.8237 16.1391C47.2557 16.1391 47.6317 16.0431 47.9517 15.8511C48.2797 15.6591 48.5157 15.3791 48.6597 15.0111L48.8877 15.8031C48.7357 16.1791 48.4677 16.4791 48.0837 16.7031C47.6997 16.9191 47.2157 17.0271 46.6317 17.0271ZM54.5716 17.0271C53.9556 17.0271 53.4036 16.8911 52.9156 16.6191C52.4356 16.3471 52.0556 15.9671 51.7756 15.4791C51.4956 14.9911 51.3556 14.4231 51.3556 13.7751C51.3556 13.1271 51.4956 12.5631 51.7756 12.0831C52.0556 11.5951 52.4356 11.2151 52.9156 10.9431C53.4036 10.6711 53.9556 10.5351 54.5716 10.5351C55.1076 10.5351 55.5916 10.6551 56.0236 10.8951C56.4556 11.1351 56.7996 11.4951 57.0556 11.9751C57.3196 12.4551 57.4516 13.0551 57.4516 13.7751C57.4516 14.4951 57.3236 15.0951 57.0676 15.5751C56.8196 16.0551 56.4796 16.4191 56.0476 16.6671C55.6156 16.9071 55.1236 17.0271 54.5716 17.0271ZM54.6676 16.0191C55.0676 16.0191 55.4276 15.9271 55.7476 15.7431C56.0756 15.5591 56.3316 15.2991 56.5156 14.9631C56.7076 14.6191 56.8036 14.2231 56.8036 13.7751C56.8036 13.3191 56.7076 12.9271 56.5156 12.5991C56.3316 12.2631 56.0756 12.0031 55.7476 11.8191C55.4276 11.6351 55.0676 11.5431 54.6676 11.5431C54.2596 11.5431 53.8956 11.6351 53.5756 11.8191C53.2556 12.0031 52.9996 12.2631 52.8076 12.5991C52.6156 12.9271 52.5196 13.3191 52.5196 13.7751C52.5196 14.2231 52.6156 14.6191 52.8076 14.9631C52.9996 15.2991 53.2556 15.5591 53.5756 15.7431C53.8956 15.9271 54.2596 16.0191 54.6676 16.0191ZM56.8396 16.9551V15.2391L56.9116 13.7631L56.7916 12.2871V8.05108H57.9436V16.9551H56.8396ZM62.9553 17.0271C62.2753 17.0271 61.6753 16.8871 61.1553 16.6071C60.6433 16.3271 60.2433 15.9431 59.9553 15.4551C59.6753 14.9671 59.5353 14.4071 59.5353 13.7751C59.5353 13.1431 59.6713 12.5831 59.9433 12.0951C60.2233 11.6071 60.6033 11.2271 61.0833 10.9551C61.5713 10.6751 62.1193 10.5351 62.7273 10.5351C63.3433 10.5351 63.8873 10.6711 64.3593 10.9431C64.8313 11.2151 65.1993 11.5991 65.4633 12.0951C65.7353 12.5831 65.8713 13.1551 65.8713 13.8111C65.8713 13.8591 65.8673 13.9151 65.8593 13.9791C65.8593 14.0431 65.8553 14.1031 65.8473 14.1591H60.4353V13.3311H65.2473L64.7793 13.6191C64.7873 13.2111 64.7033 12.8471 64.5273 12.5271C64.3513 12.2071 64.1073 11.9591 63.7953 11.7831C63.4913 11.5991 63.1353 11.5071 62.7273 11.5071C62.3273 11.5071 61.9713 11.5991 61.6593 11.7831C61.3473 11.9591 61.1033 12.2111 60.9273 12.5391C60.7513 12.8591 60.6633 13.2271 60.6633 13.6431V13.8351C60.6633 14.2591 60.7593 14.6391 60.9513 14.9751C61.1513 15.3031 61.4273 15.5591 61.7793 15.7431C62.1313 15.9271 62.5353 16.0191 62.9913 16.0191C63.3673 16.0191 63.7073 15.9551 64.0113 15.8271C64.3233 15.6991 64.5953 15.5071 64.8273 15.2511L65.4633 15.9951C65.1753 16.3311 64.8153 16.5871 64.3833 16.7631C63.9593 16.9391 63.4833 17.0271 62.9553 17.0271ZM70.6936 16.9551V10.5951H71.8456V16.9551H70.6936ZM71.2696 9.37108C71.0456 9.37108 70.8576 9.29908 70.7056 9.15508C70.5616 9.01108 70.4896 8.83508 70.4896 8.62708C70.4896 8.41108 70.5616 8.23108 70.7056 8.08708C70.8576 7.94308 71.0456 7.87108 71.2696 7.87108C71.4936 7.87108 71.6776 7.94308 71.8216 8.08708C71.9736 8.22308 72.0496 8.39508 72.0496 8.60308C72.0496 8.81908 71.9776 9.00308 71.8336 9.15508C71.6896 9.29908 71.5016 9.37108 71.2696 9.37108ZM77.4411 10.5351C77.9611 10.5351 78.4171 10.6351 78.8091 10.8351C79.2091 11.0351 79.5211 11.3391 79.7451 11.7471C79.9691 12.1551 80.0811 12.6711 80.0811 13.2951V16.9551H78.9291V13.4271C78.9291 12.8111 78.7771 12.3471 78.4731 12.0351C78.1771 11.7231 77.7571 11.5671 77.2131 11.5671C76.8051 11.5671 76.4491 11.6471 76.1451 11.8071C75.8411 11.9671 75.6051 12.2031 75.4371 12.5151C75.2771 12.8271 75.1971 13.2151 75.1971 13.6791V16.9551H74.0451V10.5951H75.1491V12.3111L74.9691 11.8551C75.1771 11.4391 75.4971 11.1151 75.9291 10.8831C76.3611 10.6511 76.8651 10.5351 77.4411 10.5351ZM85.6038 16.9551V8.55508H86.8038V16.9551H85.6038ZM89.3186 16.9551V8.55508H90.3026L95.8586 15.4551H95.3426V8.55508H96.5426V16.9551H95.5586L90.0026 10.0551H90.5186V16.9551H89.3186ZM100.725 16.9551V9.59908H97.8449V8.55508H104.793V9.59908H101.913V16.9551H100.725ZM106.1 16.9551V8.55508H109.376C110.112 8.55508 110.74 8.67108 111.26 8.90308C111.78 9.13508 112.18 9.47108 112.46 9.91108C112.74 10.3511 112.88 10.8751 112.88 11.4831C112.88 12.0911 112.74 12.6151 112.46 13.0551C112.18 13.4871 111.78 13.8191 111.26 14.0511C110.74 14.2831 110.112 14.3991 109.376 14.3991H106.76L107.3 13.8471V16.9551H106.1ZM111.716 16.9551L109.58 13.9071H110.864L113.024 16.9551H111.716ZM107.3 13.9671L106.76 13.3791H109.34C110.108 13.3791 110.688 13.2151 111.08 12.8871C111.48 12.5511 111.68 12.0831 111.68 11.4831C111.68 10.8831 111.48 10.4191 111.08 10.0911C110.688 9.76308 110.108 9.59908 109.34 9.59908H106.76L107.3 8.99908V13.9671ZM114.819 16.9551V8.55508H116.019V16.9551H114.819ZM118.533 16.9551V8.55508H122.073C122.969 8.55508 123.757 8.73108 124.437 9.08308C125.125 9.43508 125.657 9.92708 126.033 10.5591C126.417 11.1911 126.609 11.9231 126.609 12.7551C126.609 13.5871 126.417 14.3191 126.033 14.9511C125.657 15.5831 125.125 16.0751 124.437 16.4271C123.757 16.7791 122.969 16.9551 122.073 16.9551H118.533ZM119.733 15.9111H122.001C122.697 15.9111 123.297 15.7791 123.801 15.5151C124.313 15.2511 124.709 14.8831 124.989 14.4111C125.269 13.9311 125.409 13.3791 125.409 12.7551C125.409 12.1231 125.269 11.5711 124.989 11.0991C124.709 10.6271 124.313 10.2591 123.801 9.99508C123.297 9.73108 122.697 9.59908 122.001 9.59908H119.733V15.9111Z" fill="#2E2E2E"/>
<ellipse cx="14.5" cy="12.2504" rx="8.5" ry="8.49262" fill="#2E2E2E"/>
<ellipse cx="14.5" cy="12.2517" rx="2.5" ry="2.49783" fill="white" fill-opacity="0.8"/>
</svg>
