<svg width="165" height="76" viewBox="0 0 165 76" fill="none" xmlns="http://www.w3.org/2000/svg">
<path fill-rule="evenodd" clip-rule="evenodd" d="M128.844 47.8594V53.6385H115.34V58.527H127.896V64.0109H115.34V69.1414H128.844V74.8237H105.897L105.776 47.8594H128.844ZM134.168 55.5407V47.8594H162.682V55.5407H153.297V74.8237H143.481V55.5407H134.168ZM73.6668 74.8237H90.9121L91.9576 74.7366L92.9547 74.5672L93.8937 74.3252L94.7746 74.0106L95.5926 73.6282L96.3476 73.1781L97.0398 72.6941L97.6641 72.1375L98.2159 71.5324L98.6999 70.879L99.1065 70.182L99.4405 69.4464L99.6921 68.6768L99.8664 67.8733L99.9535 67.0408V66.0679L99.91 65.5839L99.7309 64.6498L99.4501 63.7931L99.0726 63.009L98.5886 62.2878L98.0417 61.6344L97.4318 61.0439C97.1004 60.7693 96.7546 60.5124 96.396 60.2743C96.0185 60.042 95.6458 59.8387 95.2537 59.6451C94.8617 59.4515 94.4551 59.3014 94.0389 59.1611C93.6226 59.0207 93.216 58.9142 92.7901 58.8174C92.3642 58.7206 91.9673 58.6625 91.551 58.6093C91.1348 58.5561 90.7524 58.5512 90.3459 58.5415H82.9356L82.984 53.9192L97.0785 54.1999V47.8594H73.6813V74.8237H73.6668ZM82.984 63.3139L87.4321 63.3381L87.7225 63.3623L88.0274 63.4301L88.313 63.5365L88.5744 63.6769L88.8164 63.8512L89.2229 64.2577L89.5424 64.7417C89.6719 64.996 89.7819 65.2598 89.8715 65.5307C89.9459 65.8089 90.0009 66.0919 90.0361 66.3777V66.9585C90.0142 67.2502 89.9706 67.5398 89.9054 67.8249L89.7021 68.3815L89.5618 68.6477L89.3924 68.8994L89.1988 69.1366L88.9664 69.3544L88.7099 69.5431L88.4243 69.7077L88.1097 69.8336L87.7758 69.9255L87.4224 69.9788H87.0739L82.9308 69.9449L82.984 63.3139Z" fill="#CD633D"/>
<path fill-rule="evenodd" clip-rule="evenodd" d="M113.099 26.0891L124.507 14.8116L135.921 26.0891L124.507 37.3666L113.099 26.0891ZM99.0242 12.3673L110.432 23.6448L121.841 12.3673L110.432 1.08984L99.0242 12.3673ZM43.1643 12.3673L54.5725 1.08984L65.9806 12.3673L54.5725 23.6448L43.1643 12.3673ZM29.1279 26.0697L40.5361 37.3472L51.9443 26.0697L40.5361 14.7922L29.1279 26.0697ZM40.7442 47.8503H59.0689L60.1725 47.9616L61.218 48.1698L62.2102 48.4747L63.1443 48.8716L64.0156 49.3556L64.819 49.9074L65.5596 50.5318L66.2323 51.2142L66.8277 51.9548L67.3504 52.7437L67.7957 53.5762L68.1539 54.4474L68.4297 55.3477L68.6137 56.2673L68.7105 57.2063V58.2518L68.6621 58.8035L68.5895 59.3311L68.3523 60.333L68.0183 61.2526L67.5876 62.0997L67.0745 62.8693L66.4792 63.5711L65.8161 64.2003L65.0901 64.7617L64.306 65.2457C63.8897 65.4684 63.4783 65.6668 63.0475 65.8508C62.6168 66.0347 62.1666 66.1654 61.7117 66.3009C61.2567 66.4364 60.8065 66.509 60.3371 66.5913C59.8676 66.6736 59.4223 66.693 58.9576 66.722H50.6326V74.8002H40.7297V47.8503H40.7442ZM50.6278 61.1026L55.2936 61.0784L55.6615 61.0542L56.0293 60.9864L56.3778 60.88L56.7021 60.7299L56.9974 60.546L57.2684 60.333L57.5056 60.0959L57.7185 59.8345L58.0574 59.2682L58.2945 58.6583L58.4349 58.0194L58.4881 57.3709L58.4542 56.7174L58.3332 56.0785L58.1251 55.4687L57.8153 54.8976L57.6217 54.6362L57.3991 54.3893L57.1474 54.1715L56.8715 53.9779L56.5618 53.8182L56.2326 53.702L55.8793 53.6246L55.5356 53.5907L50.6278 53.46V61.1026ZM11.7228 47.8503H25.7059L35.5411 74.8244H25.3139L23.5327 68.779H14.0025L12.1439 74.8244H2.38135L11.7083 47.8503H11.7228ZM18.5813 52.4291L15.0722 62.9709H22.0613L18.5813 52.4291Z" fill="#B61C1C"/>
<path fill-rule="evenodd" clip-rule="evenodd" d="M141.09 26.0891L152.498 14.8116L163.911 26.0891L152.498 37.3666L141.09 26.0891ZM127.053 12.3673L138.462 23.6448L149.87 12.3673L138.462 1.08984L127.053 12.3673ZM85.1234 26.0891L96.5315 14.8116L107.935 26.0891L96.5267 37.3666L85.1185 26.0891H85.1234ZM71.1112 12.3673L82.5194 23.6448L93.9275 12.3673L82.5194 1.08984L71.1112 12.3673ZM57.1135 26.0891L68.5217 14.8116L79.9299 26.0891L68.5217 37.3666L57.1135 26.0891ZM15.1593 12.3673L26.5675 1.08984L37.9757 12.3673L26.5675 23.6448L15.1593 12.3673ZM1.07935 26.0697L12.4875 37.3472L23.8957 26.0697L12.4875 14.7922L1.07935 26.0697Z" fill="#DD630D"/>
</svg>
