<svg width="32" height="32" viewBox="0 0 32 32" fill="none" xmlns="http://www.w3.org/2000/svg">
<path d="M27.3171 4.66667C24.3066 1.66667 20.2927 0 16.0557 0C7.24738 0 0.111497 7.11111 0.111497 15.8889C0.111497 18.6667 0.891986 21.4444 2.22997 23.7778L0 32L8.47387 29.7778C10.8153 31 13.3798 31.6667 16.0557 31.6667C24.8641 31.6667 32 24.5556 32 15.7778C31.8885 11.6667 30.3275 7.66667 27.3171 4.66667ZM23.7491 21.5556C23.4146 22.4444 21.8537 23.3333 21.0732 23.4444C20.4042 23.5556 19.5122 23.5556 18.6202 23.3333C18.0627 23.1111 17.2822 22.8889 16.3902 22.4444C12.3763 20.7778 9.81185 16.7778 9.58885 16.4444C9.36586 16.2222 7.91638 14.3333 7.91638 12.3333C7.91638 10.3333 8.91986 9.44444 9.25435 9C9.58885 8.55555 10.0348 8.55555 10.3693 8.55555C10.5923 8.55555 10.9268 8.55555 11.1498 8.55555C11.3728 8.55555 11.7073 8.44444 12.0418 9.22222C12.3763 10 13.1568 12 13.2683 12.1111C13.3798 12.3333 13.3798 12.5556 13.2683 12.7778C13.1568 13 13.0453 13.2222 12.8223 13.4444C12.5993 13.6667 12.3763 14 12.2648 14.1111C12.0418 14.3333 11.8188 14.5556 12.0418 14.8889C12.2648 15.3333 13.0453 16.5556 14.2718 17.6667C15.8328 19 17.0592 19.4444 17.5052 19.6667C17.9512 19.8889 18.1742 19.7778 18.3972 19.5556C18.6202 19.3333 19.4007 18.4444 19.6237 18C19.8467 17.5556 20.1812 17.6667 20.5157 17.7778C20.8502 17.8889 22.8571 18.8889 23.1916 19.1111C23.6376 19.3333 23.8606 19.4444 23.9721 19.5556C24.0836 19.8889 24.0836 20.6667 23.7491 21.5556Z" fill="#CD633D"/>
</svg>
