<svg width="146" height="67" viewBox="0 0 146 67" fill="none" xmlns="http://www.w3.org/2000/svg">
<path fill-rule="evenodd" clip-rule="evenodd" d="M86.6578 10.96L97.7159 0L108.783 10.96L97.7245 21.9072L86.6664 10.96H86.6578ZM37.2302 10.96L48.2884 0L59.3465 10.9472L48.2884 21.8944L37.2302 10.9472V10.96ZM123.879 23.1212L134.938 12.1697L146 23.1212L134.938 34.0684L123.879 23.1212ZM111.459 10.96L122.518 21.9072L133.576 10.96L122.526 0L111.468 10.9472L111.459 10.96ZM99.1121 23.1212L110.17 34.0684L121.233 23.1212L110.17 12.1697L99.1121 23.1212ZM74.3576 23.1212L85.4158 34.0684L96.4739 23.1212L85.4158 12.1697L74.3576 23.1212ZM61.959 10.96L73.0171 0L84.0753 10.9472L73.0171 21.8944L61.959 10.9472V10.96ZM49.5732 23.1212L60.6313 34.0684L71.6895 23.1212L60.6313 12.1697L49.5732 23.1212ZM24.8059 23.1212L35.864 34.0727L46.9221 23.1212L35.864 12.174L24.8059 23.1212ZM12.45 10.9772L23.5082 0L34.5663 10.9472L23.5082 21.8944L12.45 10.9472V10.9772ZM0 23.104L11.0581 34.0555L22.1163 23.104L11.0496 12.1569L0 23.104ZM74.1478 56.7906H77.377C79.3771 56.7906 79.921 61.3505 77.0943 61.3291L74.1264 61.3076L74.1478 56.7735V56.7906ZM64.5458 66.9871H80.0023C85.4886 66.9871 89.1804 63.4396 89.1804 59.0127C89.1804 53.5949 83.9339 51.1969 80.0023 51.1969H74.0921V48.473L86.5764 48.7218V41.7383H64.5115L64.5372 66.9871H64.5458ZM16.4287 48.6317L14.2659 55.1348H18.5487L16.4073 48.6317H16.4287ZM9.87181 41.734H23.2127L32.4035 66.9871H21.885L20.3089 61.6336H12.8955L11.2509 66.9871H1.15635L9.87181 41.734ZM118.051 49.8843V41.734H144.642V49.8843H136.325V66.9743H126.278V49.8972L118.051 49.8843ZM114.693 41.734V48.2071H102.74V51.2098H113.849V57.4169H102.74V60.6127H114.693V67H93.022L92.9363 41.7383L114.693 41.734ZM45.4703 53.4747H48.8965C51.7703 53.4747 51.7317 48.2585 49.0935 48.1856L45.4746 48.0912V53.4919L45.4703 53.4747ZM35.3586 41.734H51.7488C57.5649 41.734 61.475 46.2853 61.475 51.1197C61.475 57.0352 56.3143 59.8277 51.7488 59.8277H45.4703V66.9871H35.3586V41.734Z" fill="#000003"/>
<path fill-rule="evenodd" clip-rule="evenodd" d="M114.008 42.417V47.5388H102.059V51.8714H113.168V56.7315H102.059V61.2786H114.008V66.3146H93.7031L93.5961 42.417H114.008ZM118.719 49.2247V42.417H143.949V49.2247H135.644V66.3146H126.959V49.2247H118.719ZM65.1841 66.3146H80.4436L81.3687 66.2374L82.251 66.0873L83.0818 65.8728L83.8613 65.594L84.5851 65.2551L85.2532 64.8561L85.8656 64.4272L86.4181 63.9339L86.9063 63.3977L87.3346 62.8186L87.6944 62.2008L87.9899 61.5488L88.2126 60.8668L88.3668 60.1547L88.4439 59.4169V58.5546L88.4053 58.1257L88.2468 57.2978L87.9985 56.5385L87.6644 55.8436L87.2361 55.2044L86.7522 54.6253L86.2125 54.102C85.9192 53.8586 85.6133 53.6309 85.296 53.4199C84.962 53.214 84.6322 53.0339 84.2853 52.8623C83.9384 52.6907 83.5786 52.5577 83.2103 52.4333C82.842 52.3089 82.4822 52.2145 82.1053 52.1287C81.7285 52.043 81.3773 51.9915 81.009 51.9443C80.6406 51.8971 80.3023 51.8928 79.9425 51.8842H73.3856L73.4284 47.7876L85.8999 48.0364V42.417H65.1969V66.3146H65.1841ZM73.4284 56.1138L77.3643 56.1353L77.6213 56.1567L77.8911 56.2168L78.1438 56.3112L78.375 56.4356L78.5892 56.59L78.9489 56.9503L79.2316 57.3793C79.3462 57.6047 79.4435 57.8384 79.5228 58.0785C79.5886 58.3251 79.6373 58.5759 79.6684 58.8292V59.3439C79.6491 59.6024 79.6105 59.8591 79.5528 60.1118L79.3729 60.6051L79.2487 60.841L79.0988 61.0641L78.9275 61.2743L78.7219 61.4673L78.495 61.6346L78.2423 61.7805L77.9639 61.892L77.6684 61.9735L77.3557 62.0207H77.0474L73.3813 61.9907L73.4284 56.1138Z" fill="#CD633D"/>
<path fill-rule="evenodd" clip-rule="evenodd" d="M100.076 23.1209L110.17 13.126L120.269 23.1209L110.17 33.1157L100.076 23.1209ZM87.6212 10.9597L97.7157 20.9546L107.81 10.9597L97.7157 0.964844L87.6212 10.9597ZM38.1936 10.9597L48.2882 0.964844L58.3827 10.9597L48.2882 20.9546L38.1936 10.9597ZM25.7736 23.1037L35.8681 33.0986L45.9626 23.1037L35.8681 13.1088L25.7736 23.1037ZM36.0522 42.4071H52.2669L53.2433 42.5058L54.1684 42.6902L55.0464 42.9605L55.873 43.3122L56.6439 43.7412L57.3548 44.2302L58.0101 44.7836L58.6054 45.3884L59.1322 46.0447L59.5947 46.7439L59.9887 47.4818L60.3056 48.2539L60.5498 49.0518L60.7125 49.8668L60.7982 50.699V51.6256L60.7553 52.1146L60.6911 52.5822L60.4812 53.4701L60.1857 54.2851L59.8046 55.0358L59.3506 55.7179L58.8238 56.3399L58.2371 56.8975L57.5946 57.3951L56.9008 57.8241C56.5325 58.0214 56.1685 58.1973 55.7873 58.3603C55.4061 58.5233 55.0078 58.6391 54.6053 58.7593C54.2027 58.8794 53.8044 58.9437 53.389 59.0166C52.9735 59.0895 52.5795 59.1067 52.1684 59.1325H44.802V66.2919H36.0394V42.4071H36.0522ZM44.7977 54.1522L48.9263 54.1307L49.2518 54.1093L49.5773 54.0492L49.8856 53.9548L50.1726 53.8219L50.4338 53.6589L50.6737 53.4701L50.8835 53.2599L51.072 53.0283L51.3718 52.5264L51.5816 51.9859L51.7058 51.4197L51.7529 50.8449L51.7229 50.2657L51.6159 49.6995L51.4317 49.159L51.1576 48.6528L50.9863 48.4212L50.7893 48.2024L50.5666 48.0094L50.3225 47.8378L50.0484 47.6963L49.7571 47.5933L49.4445 47.5247L49.1404 47.4946L44.7977 47.3788V54.1522ZM10.3727 42.4071H22.7457L31.4483 66.3133H22.3988L20.8227 60.9556H12.3899L10.7453 66.3133H2.10693L10.3599 42.4071H10.3727ZM16.4414 46.4651L13.3364 55.808H19.5207L16.4414 46.4651Z" fill="#B61C1C"/>
<path fill-rule="evenodd" clip-rule="evenodd" d="M124.843 23.1209L134.938 13.126L145.036 23.1209L134.938 33.1158L124.843 23.1209ZM112.423 10.9597L122.518 20.9546L132.612 10.9597L122.518 0.964844L112.423 10.9597ZM75.3213 23.1209L85.4158 13.126L95.506 23.1209L85.4115 33.1158L75.317 23.1209H75.3213ZM62.9226 10.9597L73.0172 20.9546L83.1117 10.9597L73.0172 0.964844L62.9226 10.9597ZM50.5368 23.1209L60.6314 13.126L70.7259 23.1209L60.6314 33.1158L50.5368 23.1209ZM13.4137 10.9597L23.5082 0.964844L33.6027 10.9597L23.5082 20.9546L13.4137 10.9597ZM0.955078 23.1037L11.0496 33.0986L21.1441 23.1037L11.0496 13.1088L0.955078 23.1037Z" fill="#DD630D"/>
</svg>
