<svg width="20" height="25" viewBox="0 0 20 25" fill="none" xmlns="http://www.w3.org/2000/svg">
<path d="M10 12.7389C10.6875 12.7389 11.2763 12.4892 11.7663 11.9898C12.2554 11.4913 12.5 10.8917 12.5 10.1911C12.5 9.49045 12.2554 8.89045 11.7663 8.39108C11.2763 7.89257 10.6875 7.64331 10 7.64331C9.3125 7.64331 8.72417 7.89257 8.235 8.39108C7.745 8.89045 7.5 9.49045 7.5 10.1911C7.5 10.8917 7.745 11.4913 8.235 11.9898C8.72417 12.4892 9.3125 12.7389 10 12.7389ZM10 25C9.83333 25 9.66667 24.9682 9.5 24.9045C9.33333 24.8408 9.1875 24.7558 9.0625 24.6497C6.02083 21.9108 3.75 19.3686 2.25 17.0229C0.75 14.6764 0 12.4841 0 10.4459C0 7.26115 1.00542 4.72399 3.01625 2.83439C5.02625 0.944798 7.35417 0 10 0C12.6458 0 14.9737 0.944798 16.9837 2.83439C18.9946 4.72399 20 7.26115 20 10.4459C20 12.4841 19.25 14.6764 17.75 17.0229C16.25 19.3686 13.9792 21.9108 10.9375 24.6497C10.8125 24.7558 10.6667 24.8408 10.5 24.9045C10.3333 24.9682 10.1667 25 10 25Z" fill="black"/>
</svg>
