<svg width="23" height="23" viewBox="0 0 23 23" fill="none" xmlns="http://www.w3.org/2000/svg">
<path d="M22.9886 17.368C22.7848 18.9233 22.0232 20.3517 20.8454 21.3877C19.6675 22.4236 18.1535 22.9965 16.5849 23C7.44019 23 0 15.5598 0 6.41506C0.00345791 4.84647 0.576411 3.33251 1.61233 2.15465C2.64826 0.976786 4.07666 0.215183 5.63197 0.0114364C6.02845 -0.0325241 6.42862 0.0509511 6.77446 0.249757C7.1203 0.448562 7.39382 0.752362 7.55536 1.1171L9.87034 6.51872C9.99042 6.7991 10.0386 7.10503 10.0104 7.40874C9.98225 7.71245 9.87868 8.00431 9.7091 8.25784L7.79722 11.1832C8.66296 12.9402 10.0895 14.3586 11.8513 15.2143L14.7422 13.2909C14.9954 13.1202 15.288 13.0168 15.5923 12.9907C15.8966 12.9645 16.2026 13.0163 16.4813 13.1412L21.8829 15.4446C22.2476 15.6062 22.5514 15.8797 22.7502 16.2255C22.949 16.5714 23.0325 16.9716 22.9886 17.368ZM14.4427 2.69497C15.8452 3.07814 17.1235 3.82036 18.1516 4.84841C19.1796 5.87646 19.9219 7.1548 20.305 8.55729C20.3559 8.75419 20.4704 8.92875 20.6308 9.05374C20.7912 9.17874 20.9885 9.24715 21.1919 9.24832C21.2737 9.24817 21.3551 9.23654 21.4337 9.21377C21.5508 9.18313 21.6607 9.12941 21.7568 9.05578C21.8529 8.98215 21.9333 8.89007 21.9934 8.78496C22.0535 8.67984 22.0919 8.56379 22.1066 8.44361C22.1212 8.32344 22.1118 8.20154 22.0787 8.08508C21.618 6.36748 20.7136 4.80132 19.4561 3.54388C18.1987 2.28643 16.6325 1.38197 14.9149 0.921304C14.7947 0.877519 14.6667 0.859239 14.5391 0.867627C14.4115 0.876016 14.287 0.910889 14.1736 0.970028C14.0601 1.02917 13.9603 1.11127 13.8803 1.21112C13.8004 1.31097 13.7421 1.42637 13.7092 1.54998C13.6763 1.67359 13.6694 1.8027 13.6892 1.92908C13.7089 2.05547 13.7547 2.17636 13.8237 2.28407C13.8927 2.39178 13.9834 2.48394 14.09 2.55468C14.1965 2.62542 14.3167 2.6732 14.4427 2.69497ZM13.4868 6.25382C14.2664 6.46722 14.9769 6.88002 15.5484 7.45155C16.12 8.02308 16.5328 8.73363 16.7462 9.51322C16.7952 9.71111 16.9093 9.8868 17.0701 10.0121C17.2309 10.1374 17.4291 10.2051 17.633 10.2043C17.7111 10.205 17.7889 10.1934 17.8634 10.1697C17.9815 10.1403 18.0926 10.0875 18.19 10.0144C18.2873 9.94134 18.3691 9.84944 18.4303 9.74419C18.4915 9.63894 18.531 9.52247 18.5464 9.40168C18.5617 9.2809 18.5527 9.15825 18.5198 9.04101C18.229 7.9463 17.654 6.94791 16.853 6.14698C16.0521 5.34604 15.0537 4.77102 13.959 4.48016C13.8388 4.43637 13.7108 4.41809 13.5832 4.42648C13.4555 4.43487 13.331 4.46974 13.2176 4.52888C13.1042 4.58802 13.0043 4.67012 12.9244 4.76997C12.8444 4.86982 12.7861 4.98522 12.7532 5.10883C12.7203 5.23244 12.7135 5.36155 12.7332 5.48794C12.7529 5.61432 12.7988 5.73521 12.8678 5.84292C12.9368 5.95063 13.0275 6.04279 13.134 6.11353C13.2406 6.18427 13.3607 6.23205 13.4868 6.25382Z" fill="black"/>
</svg>
